<?xml version="1.0" encoding="utf-8"?>
<!-- Generator: Adobe Illustrator 27.5.0, SVG Export Plug-In . SVG Version: 6.00 Build 0)  -->
<svg version="1.1" id="Layer_1" xmlns="http://www.w3.org/2000/svg" xmlns:xlink="http://www.w3.org/1999/xlink" x="0px" y="0px"
	 width="698px" height="195px" viewBox="0 0 698 195" style="enable-background:new 0 0 698 195;" xml:space="preserve">
<style type="text/css">
	.st0{fill:#FFFFFF;}
	.st1{fill:#B8B4F6;}
</style>
<path class="st0" d="M232.6,187.3c-9.7,0.2-19.1-0.5-28.1-4c-14.9-5.8-26.1-15.8-33-30.4c-3.3-7-4.9-14.4-5.9-21.9
	c-0.4-2.9-0.1-6-0.1-9c0-19.2,0-38.3,0-57.5c0-1.8,0.8-3.5,1.1-5.2c0.3-2.5,0.8-4.8,1.3-7.3c1.9-8.4,6.2-15.6,11.3-22.5
	c4.6-6.1,10.6-10.7,17.1-14.4c5.5-3.1,11.5-5.1,18-6c4.1-0.5,8.2-1.5,12.4-1.6c8.1-0.2,16,1.1,23.9,3c8.3,2,15.5,6.1,21.9,11.4
	c9.5,7.9,15.7,18.1,18.7,30.2c1.7,7,2.5,14.1,2.5,21.3c0,17.7,0.3,35.5-0.2,53.2c-0.3,12.4-3.4,24.3-10.6,34.7
	c-4.8,7-10.8,12.8-18.2,17c-8.1,4.6-16.8,7.6-26.1,8.5C236.5,187.1,234.4,187.4,232.6,187.3z M260.3,96.5c-0.2-8.7,0.3-19.3-0.3-30
	c-0.3-4.2-1.2-8.3-3.2-12c-5.5-10-14.1-15.4-25.4-16.1c-9.7-0.6-18.4,2.2-24.9,9.9c-5.4,6.5-8.1,13.7-7.8,22.5
	c0.6,17.7,0.1,35.5,0.2,53.2c0,3.2-0.5,6.6,0.6,9.6c2.3,6.3,5.3,12.2,10.9,16.4c10,7.5,20.8,8.5,31.9,3.6c12.3-5.5,17.8-15.8,18-29
	C260.4,115.9,260.3,107.2,260.3,96.5z"/>
<path class="st0" d="M617.2,7.5c10.5,0.3,21.1,1.5,31,6.2c12,5.7,21.2,14.3,27.1,26.3c4.1,8.3,6.2,17,6.7,26.2
	c1,19,0.4,37.9,0.4,56.9c0,9.7-1.3,19.4-5.4,28.4c-2.9,6.5-6.7,12.4-11.8,17.6c-6,6.2-13.1,10.6-21,13.8c-4.8,2-9.8,3-14.9,3.8
	c-5.7,0.9-11.5,1-17.3,0.6c-10.1-0.7-19.6-3.4-28.3-8.6c-13-7.6-21.4-18.9-26.3-33c-2.2-6.2-3.3-12.7-3.2-19
	c0.4-21-0.4-41.9,0.4-62.9c0.3-8.2,2.7-16.2,6.5-23.5c5.1-9.9,12.2-17.9,21.9-23.7c7.5-4.5,15.7-7.2,24.4-8.3
	C610.5,7.9,613.7,7.7,617.2,7.5z M587.5,97.4c0,0,0.1,0,0.1,0c0,8.9,0,17.8,0,26.7c0,2.5-0.1,4.9,0.3,7.4
	c1.6,8.1,5.8,14.6,12.4,19.3c6.3,4.5,13.5,6.7,21.4,5.5c10.4-1.5,18.5-6.5,23.5-15.8c2.8-5.1,3.7-10.7,3.7-16.4c0-17.5,0-35,0-52.5
	c0-2.6-0.1-5.3-0.5-7.9c-1.3-8.7-5.6-15.7-12.8-20.3c-10.8-6.9-22.3-7.2-33.5-0.7c-8.8,5.1-13.9,13.4-14.5,23.4
	C586.9,76.5,587.5,87,587.5,97.4z"/>
<path class="st0" d="M66.5,152.8c22.6,0,44.6,0,66.7,0c3.9,0,3.4-0.6,3.4,3.4c0,8.2-0.1,16.3,0.1,24.5c0,2.1-0.4,2.9-2.7,2.8
	c-38.6-0.1-77.1-0.1-115.7,0c-2.1,0-2.7-0.7-2.6-2.7c0.1-7.5,0.2-15,0-22.5c-0.1-2.5,1-4,2.6-5.5c15.6-13.8,31.3-27.6,46.9-41.5
	C72.4,105,79.6,98.5,86.7,92c4.1-3.7,7.9-7.7,11.2-12.1c2.8-3.8,4.1-8.1,4.6-12.7c0.7-6.4-0.7-12.3-4.1-17.8
	c-2.6-4.3-6.4-7.1-10.9-9c-7.7-3.3-15.7-2.8-22.9,0.4c-8,3.6-13.4,10.2-15.1,19.1c-0.1,0.7-0.6,1.5-0.4,2.1c0.6,3.4-1.3,3.4-3.8,3.4
	c-9-0.1-18-0.1-27,0c-2.1,0-2.9-0.3-2.8-2.7c0.7-8.9,2.3-17.4,6.4-25.4c4.7-9.1,11.5-16,20.2-21.1c3.6-2.1,7.4-3.5,11.2-5
	c4.9-1.9,10-2.1,15-2.9c5-0.8,10-1,15.1-0.4c7.8,1,15.3,2.8,22.6,6.1c5.4,2.4,10,5.9,14.1,9.9c6.3,6.1,10.8,13.6,13.4,22.2
	c1.1,3.5,2.3,7.2,2.6,10.6c0.5,7.4,0.6,14.9-0.9,22.5c-2,10-7,18-14.1,24.9c-13.6,13.2-27.9,25.4-42.2,37.7
	C74.9,145.3,70.9,148.9,66.5,152.8z"/>
<path class="st0" d="M445.7,79c4.6-1.7,8.6-3.6,12.9-4.4c19.7-3.6,37.3,0.4,51.8,14.9c2.7,2.7,5.6,5.6,7.2,9c1.4,3,2.9,6.2,4.1,9.4
	c1.7,4.3,2.2,8.8,3.6,13.2c0.3,0.9-0.3,2.1-0.3,3.1c0.1,3.1,0.5,6.2,0,9.3c-1.1,7.8-2.2,15.4-6.8,22.3c-2.2,3.3-4.1,7.1-6.6,10.2
	c-2.4,2.9-5.3,5.4-8.3,7.8c-9,7.2-19.1,11.5-30.5,13.1c-5.7,0.8-11.4,1-17.1,0c-7.5-1.4-14.9-3.2-21.3-7.4
	c-8.5-5.6-15.9-12.1-20.5-21.5c-1.8-3.8-3.7-7.5-5.4-11.3c-0.6-1.3-0.1-1.8,0.9-2.1c7.8-2.1,15.6-4.1,23.4-6.1
	c1.8-0.5,3.7-0.8,5.4-1.6c1.3-0.6,1.5,0.2,1.7,0.9c2.4,8.4,8.5,13.6,15.9,17c5.9,2.7,12.3,2.4,18.5,0.1c7-2.6,12.3-7.1,15.5-13.9
	c2.5-5.3,3.3-10.9,2.2-16.7c-2.1-11-10.2-18.7-21.3-20.9c-8-1.6-15.5-0.3-22.6,3.6c-1,0.5-1.7,1.3-2.4,2c-3.4,3-6.7,1.8-10.3,0.6
	c-6.3-2.1-12.8-3.8-19.2-5.7c-0.8-0.2-1.7-0.4-1.7-1.7c0.2-5.3,0.2-10.6,0.6-15.9c0.5-5.6,0.4-11.3,1.1-16.8
	c0.4-3.3-0.4-6.6,0.4-9.6c1-3.7,0.5-7.5,1-11.3c0.4-3.3,0.5-7,0.5-10.5c0-4.9,0.5-9.7,0.8-14.6c0.2-3.4-0.1-6.8,0.5-10.2
	c0.3-1.6,0.7-2.1,2.3-2.1c30.1,0,60.2,0,90.2,0c1.6,0,2.1,0.5,2.1,2.1c-0.1,8.7-0.1,17.3,0,26c0,2-0.7,2.3-2.4,2.3
	c-20.1-0.1-40.2,0-60.2,0c-3,0-3.4,0.2-3.3,3.4c0.1,7.3-0.9,14.5-1.2,21.8C446.7,70.6,446.9,74.7,445.7,79z"/>
<path class="st1" d="M369.7,85.4c0,4.6-0.1,9.2,0,13.7c0,1.6-0.3,2.3-2.2,2.3c-9.5-0.1-19-0.1-28.5,0c-1.6,0-2.1-0.5-2.1-2.1
	c0.1-9.5,0.1-19,0-28.5c0-1.8,0.6-2.3,2.3-2.2c9.4,0.1,18.8,0.1,28.2,0c1.8,0,2.3,0.6,2.2,2.3C369.6,75.7,369.7,80.5,369.7,85.4z"/>
<path class="st1" d="M353.3,136.8c4.7,0,9.5,0.1,14.2,0c1.5,0,2,0.4,2,1.9c-0.1,9.6-0.1,19.1,0,28.7c0,1.5-0.4,2-1.9,2
	c-9.6-0.1-19.2-0.1-28.7,0c-1.5,0-2-0.4-2-2c0.1-9.6,0.1-19.1,0-28.7c0-1.5,0.4-2,2-2C343.7,136.9,348.5,136.8,353.3,136.8z"/>
</svg>
