<?xml version="1.0" encoding="utf-8"?>
<!-- Generator: Adobe Illustrator 27.5.0, SVG Export Plug-In . SVG Version: 6.00 Build 0)  -->
<svg version="1.1" id="Layer_1" xmlns="http://www.w3.org/2000/svg" xmlns:xlink="http://www.w3.org/1999/xlink" x="0px" y="0px"
	 width="16px" height="16px" viewBox="0 0 16 16" style="enable-background:new 0 0 16 16;" xml:space="preserve">
<style type="text/css">
	.st0{fill:#B8B4F6;}
</style>
<path class="st0" d="M8,16c4.4,0,8-3.6,8-8s-3.6-8-8-8S0,3.6,0,8S3.6,16,8,16z M8.9,6.6l-1,4.7c-0.1,0.3,0,0.5,0.3,0.5
	c0.2,0,0.5-0.1,0.7-0.2L8.8,12c-0.3,0.3-0.9,0.6-1.5,0.6c-0.7,0-1-0.4-0.8-1.3l0.7-3.5c0.1-0.3,0-0.4-0.3-0.5L6.6,7.3l0.1-0.4
	L8.9,6.6L8.9,6.6z M8,5.5c-0.6,0-1-0.4-1-1s0.4-1,1-1s1,0.4,1,1S8.6,5.5,8,5.5z"/>
</svg>
