<?xml version="1.0" encoding="utf-8"?>
<!-- Generator: Adobe Illustrator 27.5.0, SVG Export Plug-In . SVG Version: 6.00 Build 0)  -->
<svg version="1.1" id="Layer_1" xmlns="http://www.w3.org/2000/svg" xmlns:xlink="http://www.w3.org/1999/xlink" x="0px" y="0px"
	 width="16px" height="16px" viewBox="0 0 16 16" style="enable-background:new 0 0 16 16;" xml:space="preserve">
<style type="text/css">
	.st0{fill:#B8B4F6;}
</style>
<path class="st0" d="M2,2c-0.9,0-1.7,0.6-2,1.6L8,8.4l7.9-4.9C15.7,2.6,14.9,2,14,2H2z M0,11.8V4.7l5.8,3.5L0,11.8L0,11.8z M6.8,8.8
	l-6.6,4C0.5,13.6,1.2,14,2,14h6.3C8.1,13.5,8,13,8,12.5c0-1.3,0.6-2.6,1.6-3.4L9.2,8.8L8,9.6L6.8,8.8L6.8,8.8z M16,9.7v-5l-5.8,3.5
	l0.3,0.2c0.6-0.3,1.3-0.5,2-0.5C13.9,8,15.2,8.7,16,9.7z"/>
<path class="st0" d="M15.8,12.2c0,1.2-0.6,2-1.6,2c-0.5,0-1-0.2-1.1-0.6h0c-0.1,0.4-0.5,0.6-1,0.6c-0.8,0-1.3-0.5-1.3-1.4v-0.5
	c0-0.8,0.5-1.4,1.3-1.4c0.6,0,0.9,0.3,1,0.6h0V11H14v2.2c0,0.3,0.2,0.4,0.4,0.4c0.3,0,0.6-0.4,0.6-1.4v-0.1c0-1.3-0.9-2.3-2.5-2.3h0
	c-1.6,0-2.6,1.1-2.6,2.7v0.2c0,1.9,1.2,2.7,2.6,2.7h0c0.5,0,0.9-0.1,1.2-0.2v0.7C13.4,15.9,13,16,12.4,16h0C10.4,16,9,14.8,9,12.6
	v-0.2C9,10.4,10.4,9,12.5,9h0c2.1,0,3.3,1.4,3.3,3V12.2z M11.8,12.5v0.2c0,0.6,0.2,0.8,0.6,0.8c0.3,0,0.6-0.2,0.6-0.7v-0.4
	c0-0.5-0.3-0.7-0.6-0.7C12,11.7,11.8,11.9,11.8,12.5z"/>
</svg>
